<svg xmlns="http://www.w3.org/2000/svg" viewBox="0 0 427.25 524.25"><defs><style>.e9922a23-fa1b-4967-ad49-d431585b138e{fill:#ffc107;}</style></defs><title>Recurso 3</title><g id="814f4802-e771-434d-a004-2e0617ef41a4" data-name="Capa 2"><g id="d0574dd6-14b0-4e55-9a7d-c7ccde0e2ecb" data-name="geekmox.com"><g id="e6aa1805-9235-48eb-a3b3-ca0620bf0ad1" data-name="logo"><g id="d90a9318-225d-4599-a02e-7456b5a23f03" data-name="box"><polygon class="e9922a23-fa1b-4967-ad49-d431585b138e" points="0 38 427.25 0 427.25 524.25 0 486 0 38"/></g><g id="659a741f-0b1e-4b3d-9ad0-6623ff508ca8" data-name="text"><path d="M211.27783,245.9248a88.23211,88.23211,0,0,1-18.8623,13.70459q-9.80859,5.21777-19.03027,5.21631a37.68276,37.68276,0,0,1-15.67725-3.44824,40.81209,40.81209,0,0,1-13.49707-9.90234,48.79615,48.79615,0,0,1-9.38916-15.73828,58.7412,58.7412,0,0,1-3.52148-20.95459,111.20842,111.20842,0,0,1,3.52148-27.23242,154.09952,154.09952,0,0,1,9.72461-27.3208,156.91517,156.91517,0,0,1,14.6709-25.19873,121.23213,121.23213,0,0,1,18.52734-20.68945,89.77221,89.77221,0,0,1,21.20947-14.05811,53.12425,53.12425,0,0,1,22.71924-5.2168,10.06537,10.06537,0,0,1,6.03564,1.5918,15.61771,15.61771,0,0,1,3.60547,3.625q1.42236,2.03467,2.76563,3.97852a7.88087,7.88087,0,0,0,3.35352,2.82959,14.70675,14.70675,0,0,0,4.10742,1.14941,34.02591,34.02591,0,0,0,4.27539.26514q1.8457,0,3.77344-.08838,1.9248-.08716,3.77344-.08838a19.81694,19.81694,0,0,1,4.69336.53027,7.827,7.827,0,0,1,3.85742,2.29883,11.92591,11.92591,0,0,1,2.59766,4.95166,32.42223,32.42223,0,0,1,.92188,8.66455q0,4.60034-.66992,12.37842-.6709,7.78345-1.84375,17.32959-1.1748,9.54932-2.59961,20.24756-1.42676,10.70068-2.93359,20.95459-3.52148,24.40283-8.04883,52.16553a124.23347,124.23347,0,0,0,10.89844-7.42676,116.47238,116.47238,0,0,0,13.07813-11.84766q7.207-7.42749,16.0957-18.65625,8.88574-11.22729,19.95313-28.02783l8.04883,39.25684a72.16563,72.16563,0,0,1-7.79687,11.229q-4.77832,5.74878-10.5625,11.49414-5.78613,5.74878-12.07227,11.14063-6.29,5.39575-12.32422,10.16748-14.25293,11.31445-30.68359,21.92773-3.1875,18.91992-7.54492,36.86914a281.86682,281.86682,0,0,1-10.31152,33.59863,193.78269,193.78269,0,0,1-13.58105,28.73535,104.54068,104.54068,0,0,1-17.26953,22.458A72.52329,72.52329,0,0,1,173.72021,423.377a64.92916,64.92916,0,0,1-26.32373,5.2168,67.49375,67.49375,0,0,1-12.32324-1.23828,32.95085,32.95085,0,0,1-12.23975-4.95117,28.4807,28.4807,0,0,1-9.30566-10.61035q-3.68628-6.89648-3.68848-18.39062,0-7.957,3.856-17.94824a133.963,133.963,0,0,1,10.563-21.043A249.22791,249.22791,0,0,1,140.187,331.42383q9.219-11.937,20.03613-23.78418,10.81494-11.84912,22.63525-23.3418Q194.679,272.80029,206.751,262.37012ZM149.40869,394.6416a23.10091,23.10091,0,0,0,13.32959-4.333,49.974,49.974,0,0,0,11.56885-11.40527,98.55469,98.55469,0,0,0,9.64111-16.0918,183.41143,183.41143,0,0,0,7.7124-18.47949q3.35229-9.46143,5.70068-18.47852,2.34595-9.019,3.689-16.0918a123.25,123.25,0,0,0-13.32959,10.96387q-6.791,6.36475-13.24561,13.7041-6.457,7.33594-12.23975,15.11914-5.78467,7.77979-10.144,14.94238a93.93675,93.93675,0,0,0-6.87451,13.35059,28.56687,28.56687,0,0,0-2.51465,10.25684Q142.70215,394.63916,149.40869,394.6416Zm24.81445-187.44336a61.04,61.04,0,0,0,.58691,8.57617,26.45973,26.45973,0,0,0,2.09619,7.42725,14.458,14.458,0,0,0,4.02393,5.30518,9.80058,9.80058,0,0,0,6.37109,2.0332q6.20142,0,11.23389-5.65869a55.39254,55.39254,0,0,0,8.71875-13.61572,100.90421,100.90421,0,0,0,5.95215-16.4458,104.93444,104.93444,0,0,0,2.93408-14.14648l10.228-51.98877a27.35911,27.35911,0,0,0-13.41357,3.625,50.42738,50.42738,0,0,0-12.32373,9.814,87.26543,87.26543,0,0,0-10.647,14.147,112.38849,112.38849,0,0,0-8.3833,16.71045,109.6571,109.6571,0,0,0-5.44922,17.59521A78.16762,78.16762,0,0,0,174.22314,207.19824Z"/></g></g></g></g></svg>